<mxfile host="Electron" agent="Mozilla/5.0 (X11; Linux x86_64) AppleWebKit/537.36 (KHTML, like Gecko) draw.io/24.7.17 Chrome/128.0.6613.36 Electron/32.0.1 Safari/537.36" version="24.7.17">
  <diagram name="Page-1" id="l_Xzo06EJ6sc6tqPF5zm">
    <mxGraphModel dx="735" dy="432" grid="1" gridSize="5" guides="1" tooltips="1" connect="1" arrows="1" fold="1" page="1" pageScale="1" pageWidth="1169" pageHeight="827" math="1" shadow="0">
      <root>
        <mxCell id="0" />
        <mxCell id="1" parent="0" />
        <mxCell id="eglkWa1i6H6RslZ8acjo-9" value="" style="ellipse;whiteSpace=wrap;html=1;aspect=fixed;" vertex="1" parent="1">
          <mxGeometry x="390" y="155" width="10" height="10" as="geometry" />
        </mxCell>
        <mxCell id="eglkWa1i6H6RslZ8acjo-6" value="" style="ellipse;whiteSpace=wrap;html=1;aspect=fixed;" vertex="1" parent="1">
          <mxGeometry x="320" y="235" width="10" height="10" as="geometry" />
        </mxCell>
        <mxCell id="eglkWa1i6H6RslZ8acjo-1" value="" style="ellipse;whiteSpace=wrap;html=1;aspect=fixed;" vertex="1" parent="1">
          <mxGeometry x="255" y="155" width="10" height="10" as="geometry" />
        </mxCell>
        <mxCell id="YC24Ie7tqr2BCvXitiDI-2" value="" style="endArrow=none;html=1;rounded=0;entryX=0.5;entryY=0.5;entryDx=0;entryDy=0;entryPerimeter=0;" parent="1" edge="1" source="eglkWa1i6H6RslZ8acjo-1">
          <mxGeometry width="50" height="50" relative="1" as="geometry">
            <mxPoint x="160" y="160" as="sourcePoint" />
            <mxPoint x="260" y="160" as="targetPoint" />
          </mxGeometry>
        </mxCell>
        <mxCell id="YC24Ie7tqr2BCvXitiDI-3" value="" style="endArrow=none;html=1;rounded=0;exitX=0.5;exitY=0.5;exitDx=0;exitDy=0;exitPerimeter=0;" parent="1" edge="1">
          <mxGeometry width="50" height="50" relative="1" as="geometry">
            <mxPoint x="260" y="160" as="sourcePoint" />
            <mxPoint x="320" y="160" as="targetPoint" />
          </mxGeometry>
        </mxCell>
        <mxCell id="YC24Ie7tqr2BCvXitiDI-8" value="" style="endArrow=none;html=1;rounded=0;entryX=0.5;entryY=1;entryDx=0;entryDy=0;exitX=0.5;exitY=1;exitDx=0;exitDy=0;" parent="1" edge="1" source="eglkWa1i6H6RslZ8acjo-6">
          <mxGeometry width="50" height="50" relative="1" as="geometry">
            <mxPoint x="325" y="240" as="sourcePoint" />
            <mxPoint x="325" y="165" as="targetPoint" />
          </mxGeometry>
        </mxCell>
        <mxCell id="YC24Ie7tqr2BCvXitiDI-9" value="" style="endArrow=none;html=1;rounded=0;exitX=1;exitY=0.5;exitDx=0;exitDy=0;entryX=0;entryY=0.5;entryDx=0;entryDy=0;" parent="1" edge="1">
          <mxGeometry width="50" height="50" relative="1" as="geometry">
            <mxPoint x="265" y="240" as="sourcePoint" />
            <mxPoint x="390" y="240" as="targetPoint" />
          </mxGeometry>
        </mxCell>
        <mxCell id="YC24Ie7tqr2BCvXitiDI-16" value="" style="endArrow=none;html=1;rounded=0;entryX=0;entryY=0.5;entryDx=0;entryDy=0;" parent="1" edge="1">
          <mxGeometry width="50" height="50" relative="1" as="geometry">
            <mxPoint x="160" y="240" as="sourcePoint" />
            <mxPoint x="255" y="240" as="targetPoint" />
          </mxGeometry>
        </mxCell>
        <mxCell id="YC24Ie7tqr2BCvXitiDI-17" value="" style="endArrow=none;html=1;rounded=0;entryX=0;entryY=0.5;entryDx=0;entryDy=0;" parent="1" edge="1">
          <mxGeometry width="50" height="50" relative="1" as="geometry">
            <mxPoint x="400" y="239.82" as="sourcePoint" />
            <mxPoint x="495" y="239.82" as="targetPoint" />
          </mxGeometry>
        </mxCell>
        <mxCell id="YC24Ie7tqr2BCvXitiDI-19" value="" style="endArrow=none;html=1;rounded=0;exitX=0.5;exitY=0;exitDx=0;exitDy=0;" parent="1" edge="1">
          <mxGeometry width="50" height="50" relative="1" as="geometry">
            <mxPoint x="394.82" y="235" as="sourcePoint" />
            <mxPoint x="395" y="155" as="targetPoint" />
          </mxGeometry>
        </mxCell>
        <mxCell id="YC24Ie7tqr2BCvXitiDI-20" value="&lt;font style=&quot;font-size: 18px;&quot;&gt;$$\equiv$$&lt;/font&gt;" style="text;html=1;align=center;verticalAlign=middle;whiteSpace=wrap;rounded=0;" parent="1" vertex="1">
          <mxGeometry x="312.5" y="260" width="25" height="30" as="geometry" />
        </mxCell>
        <mxCell id="YC24Ie7tqr2BCvXitiDI-24" value="" style="endArrow=none;html=1;rounded=0;" parent="1" edge="1">
          <mxGeometry width="50" height="50" relative="1" as="geometry">
            <mxPoint x="235" y="309.74" as="sourcePoint" />
            <mxPoint x="415" y="309.74" as="targetPoint" />
          </mxGeometry>
        </mxCell>
        <mxCell id="YC24Ie7tqr2BCvXitiDI-28" value="X" style="text;html=1;align=center;verticalAlign=middle;whiteSpace=wrap;rounded=0;" parent="1" vertex="1">
          <mxGeometry x="315" y="380" width="20" height="20" as="geometry" />
        </mxCell>
        <mxCell id="YC24Ie7tqr2BCvXitiDI-29" value="X" style="text;html=1;align=center;verticalAlign=middle;whiteSpace=wrap;rounded=0;" parent="1" vertex="1">
          <mxGeometry x="315" y="300" width="20" height="20" as="geometry" />
        </mxCell>
        <mxCell id="YC24Ie7tqr2BCvXitiDI-33" value="" style="endArrow=none;html=1;rounded=0;" parent="1" edge="1">
          <mxGeometry width="50" height="50" relative="1" as="geometry">
            <mxPoint x="235" y="389.74" as="sourcePoint" />
            <mxPoint x="415" y="389.74" as="targetPoint" />
          </mxGeometry>
        </mxCell>
        <mxCell id="YC24Ie7tqr2BCvXitiDI-35" value="" style="endArrow=none;html=1;rounded=0;entryX=0.5;entryY=0.5;entryDx=0;entryDy=0;entryPerimeter=0;exitX=0.5;exitY=0.5;exitDx=0;exitDy=0;exitPerimeter=0;" parent="1" source="YC24Ie7tqr2BCvXitiDI-28" target="YC24Ie7tqr2BCvXitiDI-29" edge="1">
          <mxGeometry width="50" height="50" relative="1" as="geometry">
            <mxPoint x="325" y="385.00000000000006" as="sourcePoint" />
            <mxPoint x="385" y="270" as="targetPoint" />
          </mxGeometry>
        </mxCell>
        <mxCell id="eglkWa1i6H6RslZ8acjo-2" value="" style="endArrow=none;html=1;rounded=0;entryX=0.5;entryY=1;entryDx=0;entryDy=0;exitX=0.5;exitY=0;exitDx=0;exitDy=0;" edge="1" parent="1" source="eglkWa1i6H6RslZ8acjo-1" target="eglkWa1i6H6RslZ8acjo-3">
          <mxGeometry width="50" height="50" relative="1" as="geometry">
            <mxPoint x="230" y="375" as="sourcePoint" />
            <mxPoint x="230" y="305" as="targetPoint" />
          </mxGeometry>
        </mxCell>
        <mxCell id="eglkWa1i6H6RslZ8acjo-3" value="" style="shape=ellipse;fillColor=#000000;strokeColor=none;html=1;sketch=0;" vertex="1" parent="1">
          <mxGeometry x="255" y="235" width="10" height="10" as="geometry" />
        </mxCell>
        <mxCell id="eglkWa1i6H6RslZ8acjo-4" value="" style="endArrow=none;html=1;rounded=0;entryX=0.5;entryY=0.5;entryDx=0;entryDy=0;entryPerimeter=0;" edge="1" parent="1" target="eglkWa1i6H6RslZ8acjo-1">
          <mxGeometry width="50" height="50" relative="1" as="geometry">
            <mxPoint x="160" y="160" as="sourcePoint" />
            <mxPoint x="260" y="160" as="targetPoint" />
          </mxGeometry>
        </mxCell>
        <mxCell id="eglkWa1i6H6RslZ8acjo-5" value="" style="shape=ellipse;fillColor=#000000;strokeColor=none;html=1;sketch=0;" vertex="1" parent="1">
          <mxGeometry x="320" y="155" width="10" height="10" as="geometry" />
        </mxCell>
        <mxCell id="eglkWa1i6H6RslZ8acjo-8" value="" style="shape=ellipse;fillColor=#000000;strokeColor=none;html=1;sketch=0;" vertex="1" parent="1">
          <mxGeometry x="390" y="235" width="10" height="10" as="geometry" />
        </mxCell>
        <mxCell id="eglkWa1i6H6RslZ8acjo-10" value="" style="endArrow=none;html=1;rounded=0;exitX=1;exitY=0.5;exitDx=0;exitDy=0;" edge="1" parent="1">
          <mxGeometry width="50" height="50" relative="1" as="geometry">
            <mxPoint x="330" y="159.81" as="sourcePoint" />
            <mxPoint x="495" y="160" as="targetPoint" />
          </mxGeometry>
        </mxCell>
      </root>
    </mxGraphModel>
  </diagram>
</mxfile>
